<svg width="32" height="14" viewBox="0 0 32 14" fill="none" xmlns="http://www.w3.org/2000/svg">
<path d="M21.4457 7.336C21.4956 7.39914 21.559 7.45012 21.6311 7.48516C21.7032 7.52021 21.7821 7.53843 21.8621 7.53846H28.8921C29.0179 7.89773 29.2654 8.20053 29.5909 8.39334C29.9164 8.58615 30.2989 8.65656 30.6708 8.59212C31.0428 8.52768 31.3801 8.33255 31.6234 8.0412C31.8666 7.74986 32 7.38106 32 7C32 6.61894 31.8666 6.25014 31.6234 5.9588C31.3801 5.66746 31.0428 5.47232 30.6708 5.40788C30.2989 5.34344 29.9164 5.41385 29.5909 5.60666C29.2654 5.79947 29.0179 6.10227 28.8921 6.46154H22.1202L20.4048 4.29639L20.7216 2.15385H28.8921C29.0179 2.51312 29.2654 2.81592 29.5909 3.00873C29.9164 3.20154 30.2989 3.27195 30.6708 3.20751C31.0428 3.14307 31.3801 2.94793 31.6234 2.65659C31.8666 2.36524 32 1.99645 32 1.61539C32 1.23433 31.8666 0.865531 31.6234 0.574186C31.3801 0.282842 31.0428 0.0877056 30.6708 0.0232672C30.2989 -0.0411712 29.9164 0.029237 29.5909 0.222048C29.2654 0.414858 29.0179 0.717657 28.8921 1.07693H20.2625C20.1347 1.07692 20.0112 1.12324 19.9144 1.20743C19.8177 1.29163 19.754 1.40811 19.7351 1.5357L19.4952 3.15108L18.0128 1.27939C17.9629 1.21625 17.8995 1.16527 17.8274 1.13022C17.7553 1.09518 17.6764 1.07696 17.5964 1.07693H12.6992C12.5893 0.763052 12.3861 0.491129 12.1173 0.298358C11.8485 0.105587 11.5274 0.00138342 11.1977 3.3629e-06H1.59967C1.17541 3.36929e-06 0.768528 0.170195 0.468532 0.473138C0.168536 0.776082 0 1.18696 0 1.61539C0 2.04381 0.168536 2.45469 0.468532 2.75764C0.768528 3.06058 1.17541 3.23077 1.59967 3.23077H11.1977C11.5274 3.22939 11.8485 3.12519 12.1173 2.93242C12.3861 2.73965 12.5893 2.46772 12.6992 2.15385H17.3383L19.2776 4.60223L18.802 7.80339L18.0336 6.69146C17.9844 6.62043 17.919 6.56244 17.8429 6.52241C17.7667 6.48238 17.6822 6.4615 17.5964 6.46154H12.6992C12.5893 6.14767 12.3861 5.87574 12.1173 5.68297C11.8485 5.4902 11.5274 5.386 11.1977 5.38462H1.59967C1.17541 5.38462 0.768528 5.55481 0.468532 5.85775C0.168536 6.1607 0 6.57157 0 7C0 7.42843 0.168536 7.83931 0.468532 8.14225C0.768528 8.44519 1.17541 8.61538 1.59967 8.61538H11.1977C11.5274 8.614 11.8485 8.5098 12.1173 8.31703C12.3861 8.12426 12.5893 7.85234 12.6992 7.53846H17.3185L18.5743 9.34985L18.2037 11.8462H12.6992C12.5893 11.5323 12.3861 11.2604 12.1173 11.0676C11.8485 10.8748 11.5274 10.7706 11.1977 10.7692H1.59967C1.17541 10.7692 0.768528 10.9394 0.468532 11.2424C0.168536 11.5453 0 11.9562 0 12.3846C0 12.813 0.168536 13.2239 0.468532 13.5269C0.768528 13.8298 1.17541 14 1.59967 14H11.1977C11.5274 13.9986 11.8485 13.8944 12.1173 13.7016C12.3861 13.5089 12.5893 13.2369 12.6992 12.9231H18.6628C18.7905 12.9231 18.914 12.8768 19.0108 12.7926C19.1076 12.7084 19.1712 12.5919 19.1902 12.4643L19.4626 10.6308L20.8922 12.6937C20.9414 12.7645 21.0068 12.8224 21.0828 12.8623C21.1588 12.9022 21.2432 12.9231 21.3289 12.9231H28.8921C29.0179 13.2823 29.2654 13.5851 29.5909 13.778C29.9164 13.9708 30.2989 14.0412 30.6708 13.9767C31.0428 13.9123 31.3801 13.7172 31.6234 13.4258C31.8666 13.1345 32 12.7657 32 12.3846C32 12.0036 31.8666 11.6348 31.6234 11.3434C31.3801 11.0521 31.0428 10.8569 30.6708 10.7925C30.2989 10.7281 29.9164 10.7985 29.5909 10.9913C29.2654 11.1841 29.0179 11.4869 28.8921 11.8462H21.6067L19.6919 9.08438L20.1878 5.74592L21.4457 7.336ZM30.3937 6.46154C30.4992 6.46154 30.6023 6.49312 30.6899 6.55229C30.7776 6.61145 30.846 6.69555 30.8863 6.79394C30.9267 6.89233 30.9373 7.0006 30.9167 7.10505C30.8961 7.2095 30.8453 7.30545 30.7707 7.38075C30.6962 7.45606 30.6012 7.50734 30.4977 7.52812C30.3943 7.54889 30.2871 7.53823 30.1896 7.49747C30.0922 7.45672 30.0089 7.3877 29.9503 7.29915C29.8918 7.2106 29.8605 7.1065 29.8605 7C29.8605 6.85719 29.9167 6.72023 30.0167 6.61925C30.1167 6.51827 30.2523 6.46154 30.3937 6.46154ZM30.3937 1.07693C30.4992 1.07693 30.6023 1.10851 30.6899 1.16767C30.7776 1.22684 30.846 1.31094 30.8863 1.40933C30.9267 1.50772 30.9373 1.61598 30.9167 1.72044C30.8961 1.82489 30.8453 1.92083 30.7707 1.99614C30.6962 2.07144 30.6012 2.12273 30.4977 2.1435C30.3943 2.16428 30.2871 2.15362 30.1896 2.11286C30.0922 2.07211 30.0089 2.00309 29.9503 1.91454C29.8918 1.82599 29.8605 1.72188 29.8605 1.61539C29.8605 1.47258 29.9167 1.33562 30.0167 1.23464C30.1167 1.13366 30.2523 1.07693 30.3937 1.07693ZM11.1977 2.15385H1.59967C1.45825 2.15385 1.32262 2.09712 1.22262 1.99614C1.12262 1.89516 1.06645 1.7582 1.06645 1.61539C1.06645 1.47258 1.12262 1.33562 1.22262 1.23464C1.32262 1.13366 1.45825 1.07693 1.59967 1.07693H11.1977C11.3391 1.07693 11.4747 1.13366 11.5747 1.23464C11.6747 1.33562 11.7309 1.47258 11.7309 1.61539C11.7309 1.7582 11.6747 1.89516 11.5747 1.99614C11.4747 2.09712 11.3391 2.15385 11.1977 2.15385ZM11.1977 7.53846H1.59967C1.45825 7.53846 1.32262 7.48173 1.22262 7.38075C1.12262 7.27977 1.06645 7.14281 1.06645 7C1.06645 6.85719 1.12262 6.72023 1.22262 6.61925C1.32262 6.51827 1.45825 6.46154 1.59967 6.46154H11.1977C11.3391 6.46154 11.4747 6.51827 11.5747 6.61925C11.6747 6.72023 11.7309 6.85719 11.7309 7C11.7309 7.14281 11.6747 7.27977 11.5747 7.38075C11.4747 7.48173 11.3391 7.53846 11.1977 7.53846ZM11.1977 12.9231H1.59967C1.45825 12.9231 1.32262 12.8663 1.22262 12.7654C1.12262 12.6644 1.06645 12.5274 1.06645 12.3846C1.06645 12.2418 1.12262 12.1048 1.22262 12.0039C1.32262 11.9029 1.45825 11.8462 1.59967 11.8462H11.1977C11.3391 11.8462 11.4747 11.9029 11.5747 12.0039C11.6747 12.1048 11.7309 12.2418 11.7309 12.3846C11.7309 12.5274 11.6747 12.6644 11.5747 12.7654C11.4747 12.8663 11.3391 12.9231 11.1977 12.9231ZM30.3937 11.8462C30.4992 11.8462 30.6023 11.8777 30.6899 11.9369C30.7776 11.9961 30.846 12.0802 30.8863 12.1786C30.9267 12.2769 30.9373 12.3852 30.9167 12.4897C30.8961 12.5941 30.8453 12.6901 30.7707 12.7654C30.6962 12.8407 30.6012 12.892 30.4977 12.9127C30.3943 12.9335 30.2871 12.9228 30.1896 12.8821C30.0922 12.8413 30.0089 12.7723 29.9503 12.6838C29.8918 12.5952 29.8605 12.4911 29.8605 12.3846C29.8605 12.2418 29.9167 12.1048 30.0167 12.0039C30.1167 11.9029 30.2523 11.8462 30.3937 11.8462Z" fill="#828282"/>
</svg>
